<svg width="24" height="24" viewBox="0 0 24 24" fill="none" xmlns="http://www.w3.org/2000/svg">
  <symbol id="icon-id" viewBox="0 0 24 24">
    <g clip-path="url(#clip0_8166_7240)">
    <path d="M11 15C11 14.4477 10.5523 14 10 14C9.44771 14 9 14.4477 9 15C9 15.5523 9.44771 16 10 16C10.5523 16 11 15.5523 11 15Z" fill="#1E1406"/>
    <path d="M13.5 12.5C13.5 11.9477 13.0523 11.5 12.5 11.5C11.9477 11.5 11.5 11.9477 11.5 12.5C11.5 13.0523 11.9477 13.5 12.5 13.5C13.0523 13.5 13.5 13.0523 13.5 12.5Z" fill="#1E1406"/>
    <path d="M11 10C11 9.44772 10.5523 9 10 9C9.44771 9 9 9.44772 9 10C9 10.5523 9.44771 11 10 11C10.5523 11 11 10.5523 11 10Z" fill="#1E1406"/>
    <path d="M14 15C14 14.4477 14.4477 14 15 14C15.5523 14 16 14.4477 16 15C16 15.5523 15.5523 16 15 16C14.4477 16 14 15.5523 14 15Z" fill="#1E1406"/>
    <path d="M14 10C14 9.44772 14.4477 9 15 9C15.5523 9 16 9.44772 16 10C16 10.5523 15.5523 11 15 11C14.4477 11 14 10.5523 14 10Z" fill="#1E1406"/>
    <path d="M8.5 17.5C8.5 16.9477 8.05228 16.5 7.5 16.5C6.94771 16.5 6.5 16.9477 6.5 17.5C6.5 18.0523 6.94771 18.5 7.5 18.5C8.05228 18.5 8.5 18.0523 8.5 17.5Z" fill="#1E1406"/>
    <path d="M8.5 7.5C8.5 6.94772 8.05228 6.5 7.5 6.5C6.94772 6.5 6.5 6.94772 6.5 7.5C6.5 8.05228 6.94772 8.5 7.5 8.5C8.05228 8.5 8.5 8.05228 8.5 7.5Z" fill="#1E1406"/>
    <path d="M16.5 17.5C16.5 16.9477 16.9477 16.5 17.5 16.5C18.0523 16.5 18.5 16.9477 18.5 17.5C18.5 18.0523 18.0523 18.5 17.5 18.5C16.9477 18.5 16.5 18.0523 16.5 17.5Z" fill="#1E1406"/>
    <path d="M16.5 7.5C16.5 6.94772 16.9477 6.5 17.5 6.5C18.0523 6.5 18.5 6.94772 18.5 7.5C18.5 8.05228 18.0523 8.5 17.5 8.5C16.9477 8.5 16.5 8.05228 16.5 7.5Z" fill="#1E1406"/>
    </g>
    <defs>
    <clipPath id="clip0_8166_7240">
    <rect width="24" height="24" fill="white"/>
    </clipPath>
    </defs>
    </symbol>
</svg>
